<svg width="18" height="18" viewBox="0 0 18 18" fill="none" xmlns="http://www.w3.org/2000/svg">
<path d="M14.5589 5.67211C13.8298 4.94132 12.9632 4.36209 12.0091 3.96784C11.055 3.57359 10.0323 3.3721 9 3.375H8.97187C4.64555 3.38977 1.125 6.96094 1.125 11.3295V12.9375C1.125 13.2359 1.24353 13.522 1.4545 13.733C1.66548 13.944 1.95163 14.0625 2.25 14.0625H15.75C16.0484 14.0625 16.3345 13.944 16.5455 13.733C16.7565 13.522 16.875 13.2359 16.875 12.9375V11.25C16.8779 10.2132 16.6746 9.18608 16.277 8.22851C15.8794 7.27093 15.2954 6.40195 14.5589 5.67211ZM15.75 12.9375H8.41711L12.2674 7.64297C12.3553 7.52232 12.3916 7.37171 12.3684 7.22429C12.3451 7.07687 12.2643 6.94471 12.1437 6.85687C12.023 6.76904 11.8724 6.73274 11.725 6.75594C11.5776 6.77915 11.4454 6.85997 11.3576 6.98062L7.02562 12.9375H2.25V11.3295C2.25 11.1129 2.26055 10.8991 2.28023 10.6875H3.9375C4.08668 10.6875 4.22976 10.6282 4.33525 10.5227C4.44074 10.4173 4.5 10.2742 4.5 10.125C4.5 9.97582 4.44074 9.83274 4.33525 9.72725C4.22976 9.62176 4.08668 9.5625 3.9375 9.5625H2.47992C3.20555 6.83016 5.57367 4.76437 8.4375 4.52391V6.1875C8.4375 6.33668 8.49676 6.47976 8.60225 6.58525C8.70774 6.69074 8.85082 6.75 9 6.75C9.14918 6.75 9.29226 6.69074 9.39775 6.58525C9.50324 6.47976 9.5625 6.33668 9.5625 6.1875V4.5232C10.958 4.64064 12.2825 5.18857 13.3531 6.09128C14.4237 6.994 15.1876 8.20694 15.5391 9.5625H14.0625C13.9133 9.5625 13.7702 9.62176 13.6648 9.72725C13.5593 9.83274 13.5 9.97582 13.5 10.125C13.5 10.2742 13.5593 10.4173 13.6648 10.5227C13.7702 10.6282 13.9133 10.6875 14.0625 10.6875H15.7268C15.7416 10.8738 15.75 11.0609 15.75 11.25V12.9375Z" fill="white"/>
</svg>
