<svg width="18" height="18" viewBox="0 0 18 18" fill="none" xmlns="http://www.w3.org/2000/svg">
<path d="M15.1726 8.30883C15.1513 8.21868 15.1081 8.13518 15.0468 8.06575C14.9854 7.99633 14.9079 7.94312 14.8211 7.91087L10.7704 6.39141L11.8012 1.2354C11.8245 1.1156 11.8082 0.991459 11.7548 0.881711C11.7014 0.771963 11.6138 0.682561 11.5051 0.626997C11.3964 0.571432 11.2727 0.55272 11.1524 0.573683C11.0322 0.594646 10.922 0.654147 10.8386 0.743208L2.96357 9.18071C2.89961 9.2481 2.85334 9.33029 2.8289 9.41993C2.80445 9.50957 2.80259 9.60387 2.82349 9.69441C2.84438 9.78494 2.88737 9.86889 2.94863 9.93875C3.00988 10.0086 3.08749 10.0622 3.17451 10.0948L7.22662 11.6142L6.19865 16.7646C6.17531 16.8844 6.19157 17.0086 6.24497 17.1183C6.29837 17.228 6.38602 17.3174 6.49469 17.373C6.60335 17.4286 6.72715 17.4473 6.84738 17.4263C6.96762 17.4054 7.07778 17.3459 7.16123 17.2568L15.0362 8.8193C15.099 8.75189 15.1443 8.67009 15.1681 8.58108C15.1919 8.49207 15.1934 8.39858 15.1726 8.30883ZM7.68998 15.0469L8.42615 11.3639C8.4525 11.2333 8.43162 11.0976 8.36724 10.9809C8.30285 10.8642 8.19915 10.7742 8.07459 10.7269L4.35928 9.33118L10.3091 2.95665L9.57365 6.63961C9.5473 6.77023 9.56818 6.90596 9.63256 7.02263C9.69695 7.13929 9.80066 7.22931 9.92521 7.27665L13.6377 8.66883L7.68998 15.0469Z" fill="white"/>
</svg>
