<svg width="18" height="18" viewBox="0 0 18 18" fill="none" xmlns="http://www.w3.org/2000/svg">
<path d="M15.1726 8.30882C15.1513 8.21866 15.1081 8.13516 15.0468 8.06574C14.9854 7.99631 14.9079 7.94311 14.8211 7.91085L10.7704 6.3914L11.8012 1.23538C11.8245 1.11558 11.8082 0.991444 11.7548 0.881696C11.7014 0.771948 11.6138 0.682546 11.5051 0.626982C11.3964 0.571417 11.2727 0.552704 11.1524 0.573668C11.0322 0.594631 10.922 0.654132 10.8386 0.743193L2.96357 9.18069C2.89961 9.24809 2.85334 9.33028 2.8289 9.41992C2.80445 9.50956 2.80259 9.60386 2.82349 9.69439C2.84438 9.78493 2.88737 9.86887 2.94863 9.93874C3.00988 10.0086 3.08749 10.0622 3.17451 10.0948L7.22662 11.6142L6.19865 16.7646C6.17531 16.8844 6.19157 17.0085 6.24497 17.1183C6.29837 17.228 6.38602 17.3174 6.49469 17.373C6.60335 17.4286 6.72715 17.4473 6.84738 17.4263C6.96762 17.4053 7.07778 17.3458 7.16123 17.2568L15.0362 8.81929C15.099 8.75188 15.1443 8.67007 15.1681 8.58107C15.1919 8.49206 15.1934 8.39857 15.1726 8.30882ZM7.68998 15.0469L8.42615 11.3639C8.4525 11.2333 8.43162 11.0975 8.36724 10.9809C8.30285 10.8642 8.19915 10.7742 8.07459 10.7269L4.35928 9.33116L10.3091 2.95663L9.57365 6.6396C9.5473 6.77022 9.56818 6.90595 9.63256 7.02261C9.69695 7.13927 9.80066 7.22929 9.92521 7.27663L13.6377 8.66882L7.68998 15.0469Z" fill="white"/>
</svg>
