<svg width="18" height="18" viewBox="0 0 18 18" fill="none" xmlns="http://www.w3.org/2000/svg">
<path d="M15.7498 8.99995C15.7498 9.14913 15.6906 9.29221 15.5851 9.39769C15.4796 9.50318 15.3365 9.56245 15.1873 9.56245H8.99982C8.85064 9.56245 8.70757 9.50318 8.60208 9.39769C8.49659 9.29221 8.43732 9.14913 8.43732 8.99995C8.43732 8.85076 8.49659 8.70769 8.60208 8.6022C8.70757 8.49671 8.85064 8.43745 8.99982 8.43745H15.1873C15.3365 8.43745 15.4796 8.49671 15.5851 8.6022C15.6906 8.70769 15.7498 8.85076 15.7498 8.99995ZM8.99982 5.06245H15.1873C15.3365 5.06245 15.4796 5.00318 15.5851 4.89769C15.6906 4.7922 15.7498 4.64913 15.7498 4.49995C15.7498 4.35076 15.6906 4.20769 15.5851 4.1022C15.4796 3.99671 15.3365 3.93745 15.1873 3.93745H8.99982C8.85064 3.93745 8.70757 3.99671 8.60208 4.1022C8.49659 4.20769 8.43732 4.35076 8.43732 4.49995C8.43732 4.64913 8.49659 4.7922 8.60208 4.89769C8.70757 5.00318 8.85064 5.06245 8.99982 5.06245ZM15.1873 12.9374H8.99982C8.85064 12.9374 8.70757 12.9967 8.60208 13.1022C8.49659 13.2077 8.43732 13.3508 8.43732 13.4999C8.43732 13.6491 8.49659 13.7922 8.60208 13.8977C8.70757 14.0032 8.85064 14.0624 8.99982 14.0624H15.1873C15.3365 14.0624 15.4796 14.0032 15.5851 13.8977C15.6906 13.7922 15.7498 13.6491 15.7498 13.4999C15.7498 13.3508 15.6906 13.2077 15.5851 13.1022C15.4796 12.9967 15.3365 12.9374 15.1873 12.9374ZM5.78936 2.97698L3.93732 4.82971L3.21029 4.10198C3.10475 3.99643 2.96159 3.93713 2.81232 3.93713C2.66306 3.93713 2.5199 3.99643 2.41436 4.10198C2.30881 4.20753 2.24951 4.35068 2.24951 4.49995C2.24951 4.64921 2.30881 4.79237 2.41436 4.89792L3.53936 6.02292C3.5916 6.07521 3.65363 6.1167 3.72192 6.14501C3.79021 6.17332 3.8634 6.18789 3.93732 6.18789C4.01125 6.18789 4.08444 6.17332 4.15273 6.14501C4.22101 6.1167 4.28305 6.07521 4.33529 6.02292L6.58529 3.77292C6.69084 3.66737 6.75014 3.52421 6.75014 3.37495C6.75014 3.22568 6.69084 3.08253 6.58529 2.97698C6.47975 2.87143 6.33659 2.81213 6.18732 2.81213C6.03806 2.81213 5.8949 2.87143 5.78936 2.97698ZM5.78936 7.47698L3.93732 9.32971L3.21029 8.60198C3.10475 8.49643 2.96159 8.43713 2.81232 8.43713C2.66306 8.43713 2.5199 8.49643 2.41436 8.60198C2.30881 8.70753 2.24951 8.85068 2.24951 8.99995C2.24951 9.07386 2.26407 9.14704 2.29235 9.21533C2.32064 9.28361 2.36209 9.34565 2.41436 9.39792L3.53936 10.5229C3.5916 10.5752 3.65363 10.6167 3.72192 10.645C3.79021 10.6733 3.8634 10.6879 3.93732 10.6879C4.01125 10.6879 4.08444 10.6733 4.15273 10.645C4.22101 10.6167 4.28305 10.5752 4.33529 10.5229L6.58529 8.27292C6.69084 8.16737 6.75014 8.02421 6.75014 7.87495C6.75014 7.72568 6.69084 7.58253 6.58529 7.47698C6.47975 7.37143 6.33659 7.31213 6.18732 7.31213C6.03806 7.31213 5.8949 7.37143 5.78936 7.47698ZM5.78936 11.977L3.93732 13.8297L3.21029 13.102C3.15803 13.0497 3.09599 13.0083 3.0277 12.98C2.95942 12.9517 2.88623 12.9371 2.81232 12.9371C2.73841 12.9371 2.66523 12.9517 2.59695 12.98C2.52866 13.0083 2.46662 13.0497 2.41436 13.102C2.36209 13.1542 2.32064 13.2163 2.29235 13.2846C2.26407 13.3529 2.24951 13.426 2.24951 13.4999C2.24951 13.5739 2.26407 13.647 2.29235 13.7153C2.32064 13.7836 2.36209 13.8457 2.41436 13.8979L3.53936 15.0229C3.5916 15.0752 3.65363 15.1167 3.72192 15.145C3.79021 15.1733 3.8634 15.1879 3.93732 15.1879C4.01125 15.1879 4.08444 15.1733 4.15273 15.145C4.22101 15.1167 4.28305 15.0752 4.33529 15.0229L6.58529 12.7729C6.69084 12.6674 6.75014 12.5242 6.75014 12.3749C6.75014 12.2257 6.69084 12.0825 6.58529 11.977C6.47975 11.8714 6.33659 11.8121 6.18732 11.8121C6.03806 11.8121 5.8949 11.8714 5.78936 11.977Z" fill="#B8B9BD"/>
</svg>
