<svg width="18" height="18" viewBox="0 0 18 18" fill="none" xmlns="http://www.w3.org/2000/svg">
<path d="M15.7501 8.99995C15.7501 9.14913 15.6908 9.29221 15.5853 9.39769C15.4798 9.50318 15.3368 9.56245 15.1876 9.56245H9.00007C8.85088 9.56245 8.70781 9.50318 8.60232 9.39769C8.49683 9.29221 8.43757 9.14913 8.43757 8.99995C8.43757 8.85076 8.49683 8.70769 8.60232 8.6022C8.70781 8.49671 8.85088 8.43745 9.00007 8.43745H15.1876C15.3368 8.43745 15.4798 8.49671 15.5853 8.6022C15.6908 8.70769 15.7501 8.85076 15.7501 8.99995ZM9.00007 5.06245H15.1876C15.3368 5.06245 15.4798 5.00318 15.5853 4.89769C15.6908 4.7922 15.7501 4.64913 15.7501 4.49995C15.7501 4.35076 15.6908 4.20769 15.5853 4.1022C15.4798 3.99671 15.3368 3.93745 15.1876 3.93745H9.00007C8.85088 3.93745 8.70781 3.99671 8.60232 4.1022C8.49683 4.20769 8.43757 4.35076 8.43757 4.49995C8.43757 4.64913 8.49683 4.7922 8.60232 4.89769C8.70781 5.00318 8.85088 5.06245 9.00007 5.06245ZM15.1876 12.9374H9.00007C8.85088 12.9374 8.70781 12.9967 8.60232 13.1022C8.49683 13.2077 8.43757 13.3508 8.43757 13.4999C8.43757 13.6491 8.49683 13.7922 8.60232 13.8977C8.70781 14.0032 8.85088 14.0624 9.00007 14.0624H15.1876C15.3368 14.0624 15.4798 14.0032 15.5853 13.8977C15.6908 13.7922 15.7501 13.6491 15.7501 13.4999C15.7501 13.3508 15.6908 13.2077 15.5853 13.1022C15.4798 12.9967 15.3368 12.9374 15.1876 12.9374ZM5.7896 2.97698L3.93757 4.82971L3.21054 4.10198C3.10499 3.99643 2.96184 3.93713 2.81257 3.93713C2.6633 3.93713 2.52015 3.99643 2.4146 4.10198C2.30905 4.20753 2.24976 4.35068 2.24976 4.49995C2.24976 4.64921 2.30905 4.79237 2.4146 4.89792L3.5396 6.02292C3.59184 6.07521 3.65388 6.1167 3.72216 6.14501C3.79045 6.17332 3.86365 6.18789 3.93757 6.18789C4.01149 6.18789 4.08469 6.17332 4.15297 6.14501C4.22126 6.1167 4.2833 6.07521 4.33554 6.02292L6.58554 3.77292C6.69109 3.66737 6.75038 3.52421 6.75038 3.37495C6.75038 3.22568 6.69109 3.08253 6.58554 2.97698C6.47999 2.87143 6.33684 2.81213 6.18757 2.81213C6.0383 2.81213 5.89515 2.87143 5.7896 2.97698ZM5.7896 7.47698L3.93757 9.32971L3.21054 8.60198C3.10499 8.49643 2.96184 8.43713 2.81257 8.43713C2.6633 8.43713 2.52015 8.49643 2.4146 8.60198C2.30905 8.70753 2.24976 8.85068 2.24976 8.99995C2.24976 9.07386 2.26431 9.14704 2.2926 9.21533C2.32088 9.28361 2.36234 9.34565 2.4146 9.39792L3.5396 10.5229C3.59184 10.5752 3.65388 10.6167 3.72216 10.645C3.79045 10.6733 3.86365 10.6879 3.93757 10.6879C4.01149 10.6879 4.08469 10.6733 4.15297 10.645C4.22126 10.6167 4.2833 10.5752 4.33554 10.5229L6.58554 8.27292C6.69109 8.16737 6.75038 8.02421 6.75038 7.87495C6.75038 7.72568 6.69109 7.58253 6.58554 7.47698C6.47999 7.37143 6.33684 7.31213 6.18757 7.31213C6.0383 7.31213 5.89515 7.37143 5.7896 7.47698ZM5.7896 11.977L3.93757 13.8297L3.21054 13.102C3.15828 13.0497 3.09623 13.0083 3.02795 12.98C2.95966 12.9517 2.88648 12.9371 2.81257 12.9371C2.73866 12.9371 2.66547 12.9517 2.59719 12.98C2.52891 13.0083 2.46686 13.0497 2.4146 13.102C2.36234 13.1542 2.32088 13.2163 2.2926 13.2846C2.26431 13.3529 2.24976 13.426 2.24976 13.4999C2.24976 13.5739 2.26431 13.647 2.2926 13.7153C2.32088 13.7836 2.36234 13.8457 2.4146 13.8979L3.5396 15.0229C3.59184 15.0752 3.65388 15.1167 3.72216 15.145C3.79045 15.1733 3.86365 15.1879 3.93757 15.1879C4.01149 15.1879 4.08469 15.1733 4.15297 15.145C4.22126 15.1167 4.2833 15.0752 4.33554 15.0229L6.58554 12.7729C6.69109 12.6674 6.75038 12.5242 6.75038 12.3749C6.75038 12.2257 6.69109 12.0825 6.58554 11.977C6.47999 11.8714 6.33684 11.8121 6.18757 11.8121C6.0383 11.8121 5.89515 11.8714 5.7896 11.977Z" fill="#B8B9BD"/>
</svg>
