<svg width="422" height="422" viewBox="0 0 422 422" fill="none" xmlns="http://www.w3.org/2000/svg">
<path d="M284.2 74.168C236.075 74.168 197.088 113.196 197.088 161.321C197.088 209.446 236.075 248.474 284.2 248.474C332.364 248.474 371.353 209.446 371.353 161.321C371.353 113.196 332.364 74.168 284.2 74.168ZM284.2 222.027C250.702 222.027 223.533 194.819 223.533 161.321C223.533 127.783 250.7 100.615 284.2 100.615C317.738 100.615 344.906 127.782 344.906 161.321C344.906 194.819 317.739 222.027 284.2 222.027Z" fill="#E4E5F4"/>
<path d="M176.147 74.3691C178.922 72.546 181.311 72.8527 183.076 73.4238C182.72 73.67 182.366 73.9189 182.013 74.1665C182.118 74.4647 182.222 74.7615 182.326 75.0597C182.331 75.0555 179.312 74.1539 177.804 74.9993C177.744 74.784 177.682 74.5674 177.62 74.3522C177.621 74.3536 177.025 74.1356 176.147 74.3691Z" fill="#797DFF"/>
<path d="M210.145 67.9181C210.142 67.9153 212.307 66.8574 212.5 66.3904C212.615 66.5353 212.729 66.6802 212.843 66.8237C212.993 66.8687 213.144 66.9151 213.293 66.9601C213.293 66.9601 212.128 68.0587 210.963 68.6608C210.895 68.5117 210.824 68.364 210.755 68.2149C210.551 68.1164 210.349 68.0179 210.145 67.9181ZM190.495 67.7802C190.495 67.7802 189.219 67.43 188.277 66.4973C188.472 66.3848 188.669 66.2737 188.866 66.1626C188.897 65.9698 188.927 65.7757 188.958 65.583C188.959 65.5816 190.826 66.5255 191.532 66.6183C191.485 66.8617 191.44 67.105 191.394 67.3484C191.093 67.4919 190.793 67.6353 190.495 67.7802Z" fill="#B8BDF4"/>
<path d="M176.175 63.7641C176.175 63.7641 176.886 64.528 177.952 64.9683L178.04 64.4998C178.174 64.4773 178.306 64.4548 178.44 64.4337C178.44 64.4337 177.528 64.1397 177.025 63.6193C176.969 63.6994 176.912 63.7782 176.856 63.8584C176.63 63.826 176.403 63.7951 176.175 63.7641Z" fill="#797DFF"/>
<path d="M197.76 82.2506C197.769 82.2464 195.214 79.6722 194.784 79.4021C195.069 79.4457 195.354 79.4893 195.639 79.5344C195.645 79.3065 195.65 79.0786 195.655 78.8507C195.665 78.8451 198.557 81.2997 198.898 81.5332C198.661 81.5825 198.424 81.6317 198.188 81.6823C198.045 81.8714 197.903 82.0609 197.76 82.2506Z" fill="#B8BDF4"/>
<path d="M310.975 132.692C310.987 132.585 311.065 132.493 311.176 132.464C311.318 132.431 311.46 132.518 311.495 132.66C311.513 132.737 313.57 140.488 328.292 139.008C333.546 138.481 337.877 137.264 341.698 136.192C348.762 134.209 353.431 132.899 356.511 138.486C356.581 138.614 356.536 138.776 356.407 138.846C356.278 138.917 356.119 138.87 356.047 138.742C353.168 133.521 348.904 134.718 341.84 136.701C338.188 137.727 333.643 139.001 328.344 139.534C313.131 141.063 311 132.865 310.979 132.782C310.973 132.753 310.972 132.722 310.975 132.692Z" fill="#EFF0F9"/>
<path d="M85.9361 330.875C85.9361 330.875 84.6265 321.838 72.3238 324.301C72.3238 324.301 76.2399 335.74 85.9361 330.875Z" fill="#E4E5F4"/>
<g opacity="0.52">
<path d="M72.8766 324.69L76.1049 326.542C77.1824 327.154 78.2613 327.763 79.3529 328.344C79.8973 328.638 80.4445 328.925 80.9987 329.201C81.5501 329.481 82.1071 329.747 82.6698 330C83.2339 330.249 83.8036 330.488 84.3873 330.685C84.9683 330.885 85.5689 331.045 86.1921 331.048C85.884 331.083 85.5661 331.083 85.2581 331.034C84.9472 330.996 84.6405 330.928 84.3367 330.854C83.7318 330.695 83.141 330.488 82.5615 330.259C81.401 329.799 80.2827 329.244 79.1841 328.661C78.0897 328.07 77.0136 327.444 75.9628 326.781C74.9078 326.123 73.8767 325.427 72.8766 324.69Z" fill="#B8BDF4"/>
</g>
<path d="M322.751 137.523C322.751 137.523 325.723 135.167 324.038 130.674C322.353 126.181 321.525 126.974 323.711 121.575C325.896 116.178 316.048 108.16 310.557 109.97C310.557 109.97 304.555 106.065 299.372 111.439C291.181 119.931 301.499 129.416 298.919 133.521C296.34 137.625 295.909 134.394 292.986 136.798C290.063 139.202 291.61 147.963 302.905 146.037C314.199 144.112 308.091 144.327 316.193 145.878C324.294 147.43 322.751 137.523 322.751 137.523Z" fill="#21267F"/>
<path opacity="0.5" d="M321.139 139.961C319.379 139.495 317.369 138.903 316.786 136.954C316.634 136.447 316.569 135.866 316.593 135.337C316.615 134.837 316.857 134.379 316.878 133.882C316.907 133.211 316.299 132.622 315.912 132.132C315.574 131.705 315.283 131.269 315.043 130.779C314.228 129.125 314.021 127.351 313.868 125.562C313.532 126.21 313.103 126.814 312.581 127.351C309.399 130.637 303.184 131.696 298.925 129.543C299.401 131.138 299.56 132.498 298.917 133.524C296.337 137.628 295.906 134.397 292.985 136.801C290.062 139.205 291.609 147.966 302.903 146.04C314.197 144.114 308.09 144.33 316.192 145.881C321.432 146.884 322.636 143.096 322.833 140.294C322.259 140.205 321.689 140.105 321.139 139.961Z" fill="#21267F"/>
<path d="M205.067 343.353C205.067 344.678 196.5 345.753 185.93 345.753C175.362 345.753 166.795 344.678 166.795 343.353C166.795 342.028 175.362 340.953 185.93 340.953C196.499 340.953 205.067 342.027 205.067 343.353ZM97.2358 366.669C93.805 365.943 118.966 362.814 140.339 364.543C155.392 365.76 164.704 367.082 164.704 367.082C164.704 367.082 139.994 370.142 130.841 370.01C121.688 369.876 117.974 371.055 97.2358 366.669ZM263.124 363.937C265.663 363.072 246.656 365.715 230.622 363.581C214.788 361.474 212.453 367.116 212.453 367.116C212.453 367.116 231.186 369.159 238.056 368.651C244.926 368.143 247.78 369.166 263.124 363.937Z" fill="#EFF0F9"/>
<path d="M35.5662 331.706C34.0484 330.962 80.1898 333.735 100.473 327.987C120.755 322.239 186.338 327.649 230.962 327.987C275.586 328.325 266.767 324.947 299.368 325.482C356.43 326.417 368.244 326.417 386.468 329.818C386.468 329.818 333.393 338.686 298.234 332.491C263.076 326.296 268.147 333.058 223.524 335.762C178.9 338.467 195.465 333.733 157.603 335.762C119.743 337.791 52.1311 339.82 35.5662 331.706Z" fill="#E4E5F4"/>
<path d="M145.2 288.993C142.938 292.386 121.353 365.507 121.353 365.507H139.316C139.316 365.507 167.163 297.288 166.928 292.386C166.693 287.485 145.2 288.993 145.2 288.993Z" fill="#E5C9C3"/>
<path opacity="0.65" d="M144.276 305.487C146.987 306.808 149.984 307.368 152.967 307.645C155.057 307.839 157.638 307.948 158.814 310.004C159.934 311.961 159.239 314.633 158.016 316.366C156.767 318.137 154.961 319.434 153.777 321.256C152.774 322.799 152.622 324.42 152.839 326.189C153 327.51 153.214 328.832 153.456 330.15C160.304 312.682 167.042 294.808 166.925 292.386C166.69 287.483 145.199 288.993 145.199 288.993C144.624 289.855 142.801 295.224 140.402 302.747C141.537 303.848 142.829 304.781 144.276 305.487Z" fill="#E5C9C3"/>
<path opacity="0.65" d="M138.884 323.775C137.316 324.965 144.729 306.054 146.049 304.546C147.368 303.038 141.619 321.702 138.884 323.775ZM142.906 338.198C143 337.821 146.959 322.833 150.07 319.911C153.18 316.988 142.906 338.198 142.906 338.198ZM130.812 350.97C130.812 350.97 134.676 337.773 136.562 333.438C136.562 333.438 133.545 347.389 130.812 350.97ZM135.397 361.575C135.397 361.575 142.227 346.21 145.221 340.366C145.221 340.366 138.696 359.502 135.397 361.575Z" fill="#E5C9C3"/>
<path d="M174.963 269.175C173.94 273.124 177.406 344.332 177.406 344.332L194.532 343.379C194.532 343.379 198.43 269.799 196.599 265.245C194.767 260.693 174.963 269.175 174.963 269.175Z" fill="#E5C9C3"/>
<path opacity="0.65" d="M179.706 306.535C180.588 306.985 181.539 307.504 182.529 307.648C183.4 307.774 184.283 307.797 185.155 307.919C186.618 308.125 187.845 308.763 188.732 309.977C189.579 311.135 189.889 312.54 189.982 313.948C190.079 315.417 189.972 316.901 190.166 318.362C190.38 319.979 191.182 321.236 192.35 322.338C193.351 323.28 194.467 324.104 195.431 325.086C196.455 302.976 197.836 268.324 196.599 265.245C194.767 260.692 174.963 269.176 174.963 269.176C174.49 271.003 174.978 287.239 175.639 304.152C176.971 304.988 178.306 305.821 179.706 306.535Z" fill="#E5C9C3"/>
<path opacity="0.65" d="M180.42 304.104C179.33 305.743 180.121 285.446 180.872 283.588C181.623 281.73 182.321 301.247 180.42 304.104ZM188.955 316.406C188.919 316.019 187.736 300.562 189.716 296.78C191.693 292.999 188.955 316.406 188.955 316.406ZM181.726 332.442C181.726 332.442 181.042 318.707 181.399 313.993C181.399 313.993 183.132 328.161 181.726 332.442ZM189.54 340.954C189.54 340.954 190.944 324.197 191.854 317.694C191.854 317.693 191.975 337.911 189.54 340.954Z" fill="#E5C9C3"/>
<path d="M222.761 288.993C225.023 292.386 246.607 365.507 246.607 365.507H228.645C228.645 365.507 200.799 297.288 201.034 292.386C201.269 287.485 222.761 288.993 222.761 288.993Z" fill="#E5C9C3"/>
<path opacity="0.65" d="M223.685 305.487C220.975 306.808 217.977 307.368 214.995 307.645C212.905 307.839 210.323 307.948 209.147 310.004C208.028 311.961 208.723 314.633 209.945 316.366C211.193 318.137 213 319.434 214.185 321.256C215.188 322.799 215.34 324.42 215.123 326.189C214.961 327.51 214.747 328.832 214.505 330.15C207.658 312.682 200.92 294.808 201.037 292.386C201.272 287.483 222.763 288.993 222.763 288.993C223.338 289.855 225.161 295.224 227.559 302.747C226.424 303.848 225.133 304.781 223.685 305.487Z" fill="#E5C9C3"/>
<path opacity="0.65" d="M229.077 323.775C230.645 324.965 223.232 306.054 221.913 304.546C220.593 303.038 226.342 321.702 229.077 323.775ZM225.057 338.198C224.963 337.821 221.003 322.833 217.893 319.911C214.781 316.988 225.057 338.198 225.057 338.198ZM237.15 350.97C237.15 350.97 233.284 337.773 231.399 333.438C231.399 333.438 234.417 347.389 237.15 350.97ZM232.564 361.575C232.564 361.575 225.735 346.21 222.74 340.366C222.74 340.366 229.266 359.502 232.564 361.575Z" fill="#E5C9C3"/>
<path d="M279.384 361.463C279.384 361.463 278.835 353.187 280.029 352.715C281.224 352.243 284.066 352.213 284.649 352.809C285.231 353.405 283.428 362.055 282.287 363.103C281.146 364.151 279.818 363.671 279.384 361.463Z" fill="#EFD9D3"/>
<path d="M270.671 366.286C270.671 366.286 270.463 367.473 271.459 368.132C273.931 369.766 282.817 369.36 283.339 368.606C283.861 367.852 283.83 366.815 283.83 366.815L270.671 366.286Z" fill="#21267F"/>
<path d="M280.243 358.638C280.243 358.638 282.488 358.956 283.554 358.701C284.522 358.471 284.363 366.853 283.471 367.753C282.58 368.654 277.129 367.205 277.129 367.205C277.129 367.205 278.083 365.307 278.779 363.054C279.475 360.803 278.105 358.824 280.243 358.638Z" fill="#3339AE"/>
<path d="M277.67 361.588C277.67 361.588 276.202 357.673 277.819 357.537C279.437 357.399 279.862 357.72 280.683 358.358C281.505 358.997 279.699 361.665 279.488 362.075C279.278 362.484 277.67 361.588 277.67 361.588Z" fill="#21267F"/>
<path d="M275.055 363.747C275.055 363.747 277.018 364.135 277.638 365.279C278.257 366.424 280.682 363.238 280.235 361.976C279.789 360.716 277.216 361.26 277.216 361.26C277.216 361.26 277.417 363.635 275.055 363.747Z" fill="#21267F"/>
<path d="M270.8 367.053C272.106 368.388 277.032 369.204 278.189 368.118C279.347 367.03 278.689 362.481 274.065 362.969C272.16 363.17 269.886 366.119 270.8 367.053Z" fill="#606AE8"/>
<path opacity="0.2" d="M274.871 363.297C274.249 363.265 273.737 363.356 273.322 363.533C273.442 363.77 273.573 363.997 273.716 364.218C274.203 363.996 274.843 363.848 275.586 364.023C277.293 364.425 277.333 364.493 277.333 364.493C277.333 364.493 276.335 363.374 274.871 363.297ZM272.695 364.121C272.556 364.301 272.611 364.563 272.815 364.664C272.944 364.729 273.097 364.709 273.206 364.614C273.296 364.535 273.419 364.435 273.574 364.332C273.432 364.112 273.302 363.885 273.182 363.653C272.993 363.789 272.83 363.947 272.695 364.121Z" fill="white"/>
<path d="M306.389 216.362L278.101 217.189C278.101 217.189 281.475 322.895 278.689 356.548L284.617 356.956C284.617 356.957 321.775 227.735 306.389 216.362Z" fill="#2E7F21"/>
<path opacity="0.25" d="M282.549 230.629C284.429 231.115 286.362 230.72 288.216 231.418C289.426 231.874 290.516 232.605 291.388 233.559C294.632 237.106 294.611 242.763 294.072 247.237C293.727 250.098 292.768 252.997 293.253 255.897C293.792 259.116 296.093 261.637 297.886 264.235C299.332 266.33 300.29 268.585 300.533 271.129C300.717 273.048 300.703 274.979 300.849 276.901C300.99 278.761 301.179 280.786 302.089 282.453C302.31 282.857 302.571 283.183 302.867 283.441C309.37 252.166 313.514 221.627 306.387 216.361L278.099 217.188C278.099 217.188 278.229 221.224 278.414 227.95C279.572 229.19 280.904 230.202 282.549 230.629Z" fill="#21267F"/>
<path d="M330.779 359.967C330.779 359.967 328.142 351.944 329.247 351.29C330.353 350.636 333.047 350.197 333.715 350.695C334.384 351.193 334.865 359.914 333.905 361.129C332.945 362.345 331.558 362.079 330.779 359.967Z" fill="#EFD9D3"/>
<path d="M323.424 366.735C323.424 366.735 323.494 367.939 324.615 368.35C327.397 369.37 335.951 366.925 336.285 366.071C336.618 365.217 336.349 364.214 336.349 364.214L323.424 366.735Z" fill="#21267F"/>
<path d="M330.975 357.087C330.975 357.087 333.232 356.878 334.211 356.385C335.1 355.936 336.878 364.13 336.219 365.212C335.559 366.293 329.921 366.141 329.921 366.141C329.921 366.141 330.412 364.075 330.57 361.722C330.727 359.368 328.936 357.76 330.975 357.087Z" fill="#3339AE"/>
<path d="M329.152 360.55C329.152 360.55 326.821 357.079 328.362 356.573C329.904 356.067 330.392 356.281 331.339 356.712C332.286 357.144 331.143 360.157 331.034 360.605C330.923 361.051 329.152 360.55 329.152 360.55Z" fill="#21267F"/>
<path d="M327.105 363.253C327.105 363.253 329.104 363.179 329.97 364.149C330.837 365.12 332.461 361.461 331.736 360.337C331.01 359.213 328.633 360.336 328.633 360.336C328.633 360.336 329.378 362.599 327.105 363.253Z" fill="#21267F"/>
<path d="M323.727 367.452C325.306 368.45 330.288 368.108 331.163 366.784C332.039 365.459 330.349 361.184 325.963 362.726C324.155 363.359 322.622 366.753 323.727 367.452Z" fill="#606AE8"/>
<path opacity="0.2" d="M326.822 362.858C326.209 362.971 325.733 363.177 325.37 363.445C325.541 363.647 325.722 363.838 325.912 364.02C326.334 363.691 326.923 363.4 327.686 363.398C329.44 363.395 329.493 363.452 329.493 363.452C329.493 363.452 328.264 362.595 326.822 362.858ZM324.895 364.162C324.802 364.37 324.915 364.611 325.137 364.663C325.278 364.695 325.422 364.642 325.505 364.524C325.574 364.426 325.673 364.3 325.799 364.165C325.611 363.983 325.431 363.793 325.261 363.594C325.112 363.764 324.988 363.956 324.895 364.162Z" fill="white"/>
<path d="M323.601 212.616L296.266 219.946C296.266 219.946 323.324 321.806 328.374 355.193L334.797 354.539C334.797 354.538 341.197 220.133 323.601 212.616Z" fill="#2E7F21"/>
<path d="M310.979 233.566C310.979 233.566 322.371 240.101 325.034 243.495C327.696 246.888 310.602 237.713 310.979 233.566Z" fill="#3339AE"/>
<path opacity="0.1" d="M303.94 243.782C305.04 241.207 306.876 239.323 309.599 238.545C311.802 237.917 314.19 237.856 316.456 238.092C318.873 238.344 321.288 238.973 323.435 240.129C325.459 241.221 327.075 242.815 327.916 244.977C328.949 247.628 328.634 250.325 328.292 253.072C328.132 254.358 328.002 255.663 328.192 256.953C328.414 258.462 329.084 259.818 330.052 260.989C331.446 262.675 333.229 264.119 335.116 265.32C333.795 238.644 330.595 215.603 323.601 212.613L296.266 219.944C296.266 219.944 299.109 230.645 303.121 246.24C303.338 245.403 303.601 244.579 303.94 243.782Z" fill="#21267F"/>
<path d="M87.6973 114.996C132.197 107.105 264.822 105.358 271.024 116.431C286.693 144.408 268.803 287.513 268.838 293.436C268.838 293.436 104.456 300.409 99.9423 296.656C95.4297 292.902 75.4424 130.06 87.6973 114.996Z" fill="#EFF0F9"/>
<path d="M91.9327 231.077C99.0532 229.336 108.502 215.535 98.0517 173.166C97.5636 171.184 99.5849 169.405 100.97 167.895C102.512 166.216 104.152 164.614 105.639 162.889C106.831 161.506 107.921 160.007 108.431 158.264C109.681 153.998 107.154 149.513 104.764 146.056C102.255 142.426 99.1742 138.952 97.7914 134.743C96.5831 131.066 96.9826 127.068 99.4808 123.964C101.869 120.996 105.466 119.084 108.994 117.587C113.42 115.71 118.122 114.396 122.782 113.156C126.936 112.052 131.148 111.076 135.397 110.271C116.14 111.374 99.0518 112.986 87.7 114.998C80.5387 123.799 84.3859 183.048 89.7214 231.539C90.4585 231.395 91.1998 231.257 91.9327 231.077ZM274.175 125.28C273.881 126.127 273.487 126.935 272.89 127.659C272.826 127.738 272.75 127.783 272.67 127.814C272.626 128.837 272.546 129.856 272.401 130.871C271.862 134.632 270.45 138.209 267.88 141.146C264.94 144.507 261.015 146.492 257.357 149.015C254.075 151.279 251.437 153.899 250.088 157.599C248.31 162.478 247.845 167.822 249.05 172.869C250.299 178.105 253.194 182.843 255.93 187.479C258.305 191.504 262.236 194.404 264.847 198.265C267.261 201.836 267.651 205.77 266.21 209.763C265.038 213.01 262.73 215.709 259.984 217.887C254.235 222.447 246.863 224.844 241.395 229.748C238.441 232.398 236.504 235.804 236.922 239.762C237.382 244.124 239.841 248.091 241.828 251.956C243.827 255.843 245.783 260.032 245.558 264.458C245.386 267.814 243.923 270.932 241.53 273.383C239.294 275.674 236.455 277.327 233.642 278.894C230.963 280.387 228.116 281.799 225.891 283.895C222.328 287.25 222.805 291.307 224.532 295.159C249.814 294.242 268.839 293.435 268.839 293.435C268.806 287.988 283.931 166.525 274.175 125.28Z" fill="#E4E5F4"/>
<path d="M130.741 215.266C130.421 214.957 130.262 214.574 130.262 214.119C130.262 207.305 130.065 201.551 129.671 196.857C128.492 196.727 127.654 196.66 127.163 196.66C125.146 196.66 123.695 196.774 122.81 197.002C122.81 198.83 123.033 201.584 123.476 205.266C123.868 209.178 124.065 211.951 124.065 213.58C124.065 213.905 123.917 214.209 123.624 214.484C123.328 214.763 122.958 214.899 122.516 214.899C121.876 214.899 121.286 214.151 120.745 212.65C119.959 210.435 119.318 205.787 118.827 198.714C118.482 193.922 118.311 188.772 118.311 183.262C118.261 182.253 118.236 180.817 118.236 178.959C118.236 178.372 118.652 178.078 119.489 178.078C119.98 178.078 120.487 178.16 121.001 178.322C121.519 178.485 121.898 178.665 122.145 178.859C121.948 179.903 121.851 181.125 121.851 182.528C121.851 183.896 121.948 185.558 122.145 187.514C122.293 189.765 122.367 191.459 122.367 192.601V193.48C122.318 193.742 122.293 194.051 122.293 194.408C122.293 194.733 122.342 195.16 122.44 195.679C122.736 195.679 123.227 195.662 123.915 195.629C124.603 195.598 125.29 195.549 125.981 195.483C127.603 195.385 128.807 195.335 129.593 195.335C129.593 192.5 129.544 189.876 129.447 187.462L129.299 179.297V177.977C129.938 177.977 130.504 178.05 130.996 178.198C131.487 178.343 131.854 178.531 132.101 178.759C132.545 179.119 132.815 179.737 132.913 180.619V181.743C132.913 184.548 133.159 189.908 133.653 197.831C134.095 205.002 134.317 210.381 134.317 213.967C134.317 214.422 134.106 214.83 133.69 215.19C133.27 215.549 132.768 215.726 132.177 215.726C131.539 215.731 131.059 215.576 130.741 215.266ZM152.757 215.047C151.919 214.884 151.502 214.427 151.502 213.678V185.268C151.502 184.714 151.355 183.882 151.061 182.774C150.716 181.765 150.543 180.932 150.543 180.28V180.135C151.378 179.222 151.993 178.635 152.387 178.374C153.075 178.374 153.985 178.31 155.116 178.18C156.148 178.049 157.057 177.983 157.845 177.983C158.63 177.983 159.394 178.137 160.131 178.447C160.868 178.758 161.236 179.124 161.236 179.547C161.236 180.525 160.105 181.014 157.845 181.014H156.812C156.517 180.982 156.172 180.965 155.78 180.965C155.338 180.965 155.067 180.982 154.968 181.014C154.968 182.123 155.067 183.459 155.264 185.023L155.41 186.393L155.558 189.081C155.558 189.702 155.483 190.647 155.338 191.917L155.191 194.655L156.222 194.51C157.205 194.313 158.017 194.216 158.658 194.216C159.198 194.216 159.689 194.355 160.132 194.631C160.574 194.909 160.796 195.226 160.796 195.584C160.796 195.977 160.612 196.327 160.243 196.637C159.876 196.947 159.419 197.101 158.879 197.101L157.994 197.051H157.037C156.298 197.051 155.783 197.165 155.487 197.395V212.504L159.617 212.357C162.421 212.357 163.822 212.781 163.822 213.628V213.822C163.528 214.214 162.986 214.532 162.2 214.775C161.414 215.02 160.651 215.175 159.914 215.24L157.481 215.289H155.195C154.256 215.29 153.445 215.209 152.757 215.047ZM180.525 215.071C180.008 214.761 179.751 214.394 179.751 213.971C179.751 213.678 179.848 213.32 180.045 212.895C180.193 212.439 180.267 212.097 180.267 211.869C180.267 208.967 180.021 203.393 179.53 195.145C179.038 188.105 178.793 182.547 178.793 178.472C178.793 178.18 178.963 177.942 179.308 177.765C179.651 177.585 180.07 177.495 180.563 177.495C181.152 177.495 181.668 177.634 182.111 177.91C182.553 178.188 182.775 178.521 182.775 178.913C182.775 180.869 182.923 183.802 183.218 187.714C183.463 192.049 183.585 194.984 183.585 196.514L183.66 197.101V198.274C183.808 201.11 183.882 205.348 183.882 210.986V212.259H189.561C190.593 212.748 191.11 213.237 191.11 213.726C191.11 214.085 190.925 214.403 190.557 214.68C190.19 214.957 189.757 215.095 189.266 215.095C189.118 215.095 188.849 215.062 188.454 214.996L188.16 214.947C187.865 214.979 187.396 214.996 186.758 214.996H185.504C185.16 214.964 184.767 214.947 184.323 214.947C183.832 215.338 183.144 215.534 182.259 215.534C181.618 215.535 181.042 215.38 180.525 215.071ZM206.341 215.071C205.826 214.761 205.567 214.394 205.567 213.971C205.567 213.678 205.665 213.32 205.861 212.895C206.009 212.439 206.084 212.097 206.084 211.869C206.084 208.967 205.838 203.393 205.347 195.145C204.854 188.105 204.61 182.547 204.61 178.472C204.61 178.18 204.78 177.942 205.124 177.765C205.468 177.585 205.887 177.495 206.379 177.495C206.969 177.495 207.485 177.634 207.928 177.91C208.37 178.188 208.592 178.521 208.592 178.913C208.592 180.869 208.74 183.802 209.035 187.714C209.28 192.049 209.402 194.984 209.402 196.514L209.477 197.101V198.274C209.624 201.11 209.699 205.348 209.699 210.986V212.259H215.378C216.41 212.748 216.926 213.237 216.926 213.726C216.926 214.085 216.742 214.403 216.373 214.68C216.006 214.957 215.573 215.095 215.082 215.095C214.934 215.095 214.666 215.062 214.271 214.996L213.977 214.947C213.681 214.979 213.213 214.996 212.574 214.996H211.321C210.976 214.964 210.584 214.947 210.139 214.947C209.648 215.338 208.96 215.534 208.076 215.534C207.434 215.535 206.857 215.38 206.341 215.071ZM236.545 215.486C235.463 214.899 234.528 214.1 233.742 213.09C232.314 211.331 231.259 208.918 230.571 205.853C230.079 203.735 229.709 201.29 229.464 198.517L229.389 195.926V193.284C229.34 192.438 229.315 191.411 229.315 190.205C229.315 188.249 229.439 186.52 229.685 185.02C229.88 183.457 230.373 181.907 231.159 180.375C231.945 179.039 233.078 178.094 234.552 177.54C235.437 177.279 236.323 177.149 237.208 177.149C239.811 177.149 241.878 177.832 243.403 179.202C245.074 180.734 246.181 182.446 246.722 184.337C247.509 186.618 247.95 188.803 248.052 190.889C248.247 193.204 248.346 195.387 248.346 197.443V200.229C248.346 200.783 248.222 201.827 247.978 203.358C247.782 204.565 247.683 205.591 247.683 206.438V206.632C247.389 207.547 247.241 208.621 247.241 209.861C247.241 210.774 246.946 211.719 246.357 212.696C245.767 213.674 244.929 214.505 243.848 215.19C242.767 215.973 241.536 216.364 240.16 216.364C238.831 216.366 237.625 216.074 236.545 215.486ZM242.813 211.869C243.403 210.793 243.833 209.482 244.105 207.932C244.373 206.383 244.608 204.632 244.806 202.675C244.903 201.829 244.953 200.736 244.953 199.398L244.881 194.901C244.781 193.141 244.487 190.94 243.996 188.299C243.602 186.049 242.865 184.062 241.782 182.334C241.291 181.519 240.676 180.883 239.938 180.426C239.201 179.97 238.415 179.741 237.578 179.741C236.35 179.741 235.439 180.377 234.85 181.648C234.11 182.986 233.621 184.453 233.373 186.05C233.079 187.779 232.905 189.425 232.858 190.989L232.784 192.604C232.734 193.059 232.709 193.678 232.709 194.462V194.656C232.709 196.84 233.052 199.53 233.742 202.726C234.528 207.061 235.683 210.142 237.209 211.966C238.191 213.109 239.223 213.678 240.307 213.678C241.29 213.678 242.124 213.075 242.813 211.869Z" fill="#005147"/>
<path d="M86.0022 330.353C85.9262 330.166 78.364 311.636 77.8083 305.908L77.5565 305.932C78.115 311.695 85.6913 330.26 85.7686 330.447L86.0022 330.353Z" fill="#EFF0F9"/>
<path d="M77.8 306.513C77.8 306.513 79.0322 300.565 77.0333 300.339C75.033 300.111 77.8 306.513 77.8 306.513ZM78.3443 308.54C78.3443 308.54 74.7587 304.75 74.5477 305.87C74.3382 306.991 78.3443 308.54 78.3443 308.54ZM79.2573 311.955C79.2573 311.955 76.2962 308.374 75.3411 309.19C74.3846 310.004 79.2573 311.955 79.2573 311.955ZM80.3953 315.949C80.3953 315.949 76.7028 311.676 75.6618 312.72C74.6209 313.765 80.3953 315.949 80.3953 315.949ZM81.522 319.835C81.522 319.835 76.3891 314.4 75.4902 315.757C74.5927 317.116 81.522 319.835 81.522 319.835ZM83.4421 324.46C83.4421 324.46 76.7801 318.583 76.1851 319.69C75.5887 320.796 83.4421 324.46 83.4421 324.46ZM85.1695 328.831C85.1695 328.831 78.2402 323.532 77.2809 324.842C76.323 326.151 85.1695 328.831 85.1695 328.831ZM85.2539 328.603C85.2539 328.603 85.78 321.688 86.9433 322.826C88.108 323.964 85.2539 328.603 85.2539 328.603ZM83.4421 324.46C83.4421 324.46 84.1229 317.967 85.5662 318.637C87.0094 319.306 83.4421 324.46 83.4421 324.46ZM81.8371 319.692C81.8371 319.692 82.705 314.441 83.9077 314.916C85.1104 315.393 81.8371 319.692 81.8371 319.692ZM80.3953 315.949C80.3953 315.949 81.9538 309.966 82.9976 311.007C84.0413 312.049 80.3953 315.949 80.3953 315.949ZM79.2573 311.955C79.2573 311.955 80.5345 306.935 81.4939 307.711C82.4546 308.486 79.2573 311.955 79.2573 311.955ZM78.4147 309.191C78.4147 309.191 79.7749 304.436 80.9284 304.972C82.0833 305.508 78.4147 309.191 78.4147 309.191ZM41.8048 284.642C41.7682 284.541 41.7977 284.422 41.8863 284.349C41.9989 284.256 42.1649 284.273 42.2591 284.386C42.3098 284.448 47.5482 290.519 60.1407 282.748C64.635 279.976 67.9983 276.988 70.965 274.353C76.451 269.481 80.0759 266.261 85.2905 269.938C85.4086 270.022 85.4396 270.187 85.3538 270.306C85.2694 270.426 85.1048 270.454 84.9852 270.37C80.1125 266.933 76.8012 269.875 71.3152 274.747C68.4794 277.265 64.9501 280.401 60.4178 283.197C47.4061 291.226 41.9032 284.785 41.8484 284.719C41.8301 284.697 41.8146 284.67 41.8048 284.642ZM89.1827 326.978C89.1827 326.978 84.6476 313.85 90.3952 311.139C96.1443 308.428 93.7642 322.535 89.1827 326.978ZM362.625 322.151C362.625 322.151 358.09 309.022 363.837 306.311C369.586 303.601 367.206 317.705 362.625 322.151Z" fill="#EFF0F9"/>
<path d="M87.1571 331.285C87.1571 331.285 91.2659 325.57 83.1213 320.354C83.1213 320.354 79.1728 328.797 87.1571 331.285Z" fill="#EFF0F9"/>
<g opacity="0.52">
<path d="M83.2198 320.865L84.0202 323.621C84.2903 324.536 84.5632 325.452 84.8586 326.358C85.0035 326.812 85.154 327.265 85.313 327.714C85.4691 328.164 85.6351 328.61 85.8123 329.052C85.9924 329.492 86.1795 329.929 86.3989 330.35C86.6155 330.772 86.8617 331.183 87.2063 331.518C87.0164 331.373 86.8406 331.202 86.6957 331.01C86.5438 330.823 86.4088 330.621 86.2808 330.418C86.0304 330.005 85.8123 329.575 85.614 329.137C85.2159 328.261 84.8924 327.355 84.5956 326.444C84.3044 325.529 84.0428 324.608 83.8135 323.677C83.58 322.747 83.3802 321.81 83.2198 320.865Z" fill="#B8BDF4"/>
</g>
<path d="M359.989 326.901C359.989 326.901 363.239 308.943 338.36 305.805C338.36 305.805 338.526 329.972 359.989 326.901Z" fill="#EFF0F9"/>
<g opacity="0.52">
<path d="M339.161 306.892L344.104 312.452C345.759 314.294 347.416 316.133 349.116 317.928C349.962 318.829 350.817 319.723 351.691 320.595C352.557 321.474 353.445 322.333 354.351 323.17C355.261 324.002 356.188 324.815 357.17 325.558C358.146 326.304 359.181 326.991 360.36 327.392C359.754 327.262 359.153 327.063 358.599 326.771C358.035 326.501 357.496 326.181 356.968 325.846C355.922 325.161 354.934 324.394 353.981 323.591C352.073 321.982 350.306 320.225 348.594 318.421C346.894 316.609 345.255 314.739 343.681 312.816C342.101 310.897 340.589 308.925 339.161 306.892Z" fill="#B8BDF4"/>
</g>
<path d="M347.774 254.514H344.211V251.342H341.039V247.779H344.211V244.607H347.774V247.779H350.946V251.342H347.774V254.514ZM344.559 254.168H347.427V250.996H350.599V248.128H347.427V244.956H344.559V248.128H341.387V250.996H344.559V254.168ZM71.2252 249.37L68.7058 246.85L70.9494 244.607L68.7058 242.363L71.2252 239.844L73.4688 242.087L75.7124 239.844L78.2318 242.363L75.9881 244.607L78.2318 246.85L75.7124 249.37L73.4688 247.126L71.2252 249.37ZM69.1967 246.85L71.2252 248.879L73.4688 246.635L75.7124 248.879L77.7408 246.85L75.4972 244.607L77.7408 242.363L75.7124 240.335L73.4688 242.578L71.2252 240.335L69.1967 242.363L71.4404 244.607L69.1967 246.85Z" fill="#E4E5F4"/>
<path d="M327.521 222.476C323.26 226.736 285.825 227.132 278.786 223.487C271.747 219.842 278.758 140.461 308.95 138.021C333.836 136.011 327.521 222.476 327.521 222.476Z" fill="#EFF0F9"/>
<path d="M294.376 152.968C295.507 153.91 301.83 156.662 306.158 155.324C310.487 153.986 313.699 154.082 315.396 154.325C317.092 154.57 316.15 165.316 316.15 165.316C316.15 165.316 308.609 167.86 302.481 165.316C296.354 162.771 290.98 163.148 290.886 162.865C290.795 162.583 294.376 152.968 294.376 152.968ZM285.362 175.238C286.915 176.181 295.594 178.932 301.535 177.595C307.475 176.257 311.885 176.352 314.214 176.596C316.544 176.841 315.25 187.586 315.25 187.586C315.25 187.586 304.899 190.131 296.489 187.586C288.078 185.041 280.705 185.418 280.575 185.136C280.446 184.853 285.362 175.238 285.362 175.238ZM285.497 195.856C287.243 196.798 297.002 199.55 303.681 198.212C310.361 196.874 315.32 196.97 317.938 197.213C320.557 197.458 319.101 208.204 319.101 208.204C319.101 208.204 307.462 210.748 298.007 208.204C288.551 205.659 280.259 206.036 280.112 205.753C279.969 205.47 285.497 195.856 285.497 195.856Z" fill="#2E7F21"/>
<path d="M273.67 126.6C273.355 127.586 272.715 128.64 272.18 128.844C271.893 129.074 271.118 132.203 270.902 133.145L266.141 132.944L267.013 128.396C267.013 128.396 266.84 127.444 266.708 125.793C266.576 124.141 266.209 117.746 266.98 117.959C267.751 118.171 267.912 121.726 267.912 121.726C267.912 121.726 268.555 116.03 269.392 116.326C270.229 116.623 269.79 121.584 269.79 121.584C269.79 121.584 270.693 115.368 271.63 115.174C272.567 114.98 271.409 121.712 271.409 121.712C271.409 121.712 273.374 116.105 274.218 116.345C275.062 116.587 273.057 122.242 272.898 123.497C272.795 124.31 273.332 124.863 273.941 124.257C274.55 123.65 276.257 123.609 276.485 124.209C276.71 124.809 273.985 125.614 273.67 126.6Z" fill="#EFD9D3"/>
<g opacity="0.5">
<path d="M269.794 128.82C270.394 128.808 270.992 128.724 271.573 128.575C271.886 128.495 272.198 128.389 272.48 128.229C271.8 128.951 270.932 129.467 269.893 129.416C269.311 129.388 268.604 129.292 268.128 128.928C267.949 128.792 267.797 128.6 267.67 128.384C267.78 128.458 267.894 128.524 268.019 128.578C268.557 128.806 269.219 128.831 269.794 128.82Z" fill="#E5C9C3"/>
</g>
<path d="M299.244 141.834L267.309 159.51L272.205 130.384L266.141 129.358C266.141 129.358 250.207 157.042 254.971 173.563C259.735 190.084 285.362 175.238 285.362 175.238L299.244 141.834Z" fill="white"/>
<path opacity="0.3" d="M288.889 147.566C286.154 151.689 283.93 156.154 280.823 160.024C279.536 161.627 278.16 163.066 276.368 164.1C274.88 164.958 273.193 165.59 271.973 166.842C270.544 168.31 270.409 170.378 269.704 172.208C268.966 174.126 267.558 175.48 265.673 176.283C263.585 177.174 261.266 177.345 259.021 177.316C258.203 177.305 257.402 177.222 256.61 177.095C263.898 187.662 285.362 175.24 285.362 175.24L299.244 141.836L288.889 147.566Z" fill="#B8BDF4"/>
<path d="M300.924 140.695C300.924 140.695 302.604 148.852 296.297 160.574C289.991 172.294 288.298 181.339 287.902 190.391C286.503 222.442 277.457 225.271 277.457 225.271C277.457 225.271 271.9 225.97 274.154 216.787C275.209 212.49 272.899 156.492 300.924 140.695ZM314.739 139.387C312.072 139.319 305.596 167.455 312.623 184.296C319.651 201.138 305.285 216.97 310.495 221.153C315.705 225.337 323.369 230.333 333.073 227.299C342.778 224.265 330.748 216.347 329.392 197.745C328.036 179.143 328.237 167.706 328.237 167.706C328.237 167.706 328.621 139.738 314.739 139.387Z" fill="white"/>
<path opacity="0.3" d="M329.392 197.745C328.467 185.06 328.267 175.711 328.233 171.045C327.21 169.181 326.416 167.181 325.756 165.185C324.825 162.366 324.142 159.441 323.813 156.483C322.336 159.229 321.862 162.584 322.353 165.622C322.625 167.305 323.306 168.897 323.815 170.516C324.294 172.041 324.691 173.594 324.756 175.197C324.823 176.88 324.497 178.535 323.836 180.083C323.449 180.989 322.929 181.824 322.501 182.709C322.089 183.559 321.724 184.432 321.39 185.314C320.07 188.79 319.176 192.422 317.42 195.724C316.628 197.213 315.612 198.545 314.65 199.927C314.41 200.271 314.166 200.623 313.93 200.983C313.732 202.01 313.498 203.011 313.244 203.989C314.868 204.12 316.532 203.705 318.156 203.677C319.968 203.646 321.739 204.273 323.3 205.157C326.101 206.741 328.263 209.305 329.342 212.326C330.429 215.37 330.856 218.79 330.129 221.966C329.508 224.681 327.943 226.825 325.514 228.144C327.874 228.346 330.394 228.136 333.075 227.298C342.778 224.265 330.748 216.347 329.392 197.745Z" fill="#B8BDF4"/>
<path d="M302.251 140.45C302.606 138.295 305.164 136.355 307.963 136.115C310.762 135.876 312.744 137.427 312.39 139.582C312.035 141.737 309.477 143.677 306.677 143.917C303.877 144.158 301.895 142.605 302.251 140.45Z" fill="#EFF0F9"/>
<path d="M304.275 133.359L303.649 140.91C303.649 140.91 308.762 142.526 310.921 139.25L309.492 133.062L304.275 133.359Z" fill="#EFD9D3"/>
<path opacity="0.5" d="M309.609 133.566C309.216 135.704 304.255 136.926 304.64 138.841C304.836 139.81 305.812 140.394 306.717 140.688C307.316 140.883 307.949 140.975 308.586 140.994C306.296 141.746 303.649 140.909 303.649 140.909L304.275 133.358L309.609 133.566Z" fill="#E5C9C3"/>
<path d="M314.591 123.037C314.591 123.037 314.839 134.842 305.044 134.679C295.249 134.515 300.827 119.453 300.827 119.453C300.827 119.453 308.718 113.756 314.591 123.037Z" fill="#EFD9D3"/>
<path d="M300.062 119.403C300.062 119.403 302.602 120.551 303.411 120.295C304.22 120.041 304.95 119.093 304.95 119.093V120.932C304.95 120.932 312.826 124.797 315.375 122.992C317.925 121.188 305.241 108.822 300.062 119.403Z" fill="#21267F"/>
<path d="M313.325 124.794C313.325 124.794 314.728 123.728 315.518 124.512C316.309 125.297 314.443 129.681 313.021 128.409C311.601 127.136 313.325 124.794 313.325 124.794Z" fill="#EFD9D3"/>
<path d="M313.659 125.489C313.709 125.497 313.761 125.476 313.791 125.431C313.795 125.425 314.162 124.88 314.59 124.854C314.775 124.844 314.946 124.933 315.112 125.127C315.123 125.141 315.136 125.152 315.152 125.161C315.167 125.169 315.184 125.174 315.202 125.176C315.219 125.178 315.237 125.176 315.254 125.171C315.271 125.166 315.286 125.157 315.3 125.146C315.313 125.134 315.324 125.12 315.332 125.105C315.34 125.089 315.345 125.072 315.346 125.054C315.347 125.036 315.345 125.019 315.339 125.002C315.334 124.985 315.325 124.97 315.313 124.957C315.092 124.698 314.844 124.574 314.573 124.593C314.014 124.626 313.588 125.259 313.57 125.286C313.56 125.301 313.554 125.317 313.55 125.334C313.547 125.351 313.547 125.368 313.55 125.385C313.554 125.402 313.56 125.418 313.57 125.433C313.58 125.447 313.592 125.459 313.606 125.469C313.623 125.479 313.64 125.486 313.659 125.489ZM310.333 124.989C310.333 124.989 307.957 124.791 307.725 124.549C307.493 124.307 308.254 123.837 309.295 124.137C310.336 124.437 310.606 124.991 310.333 124.989ZM308.137 125.952C308.073 126.331 308.282 126.682 308.603 126.735C308.924 126.788 309.236 126.527 309.299 126.147C309.364 125.767 309.154 125.416 308.834 125.361C308.744 125.345 308.655 125.355 308.571 125.387C308.679 125.441 308.742 125.577 308.718 125.722C308.689 125.894 308.547 126.013 308.402 125.989C308.295 125.971 308.215 125.88 308.192 125.764C308.167 125.825 308.149 125.885 308.137 125.952ZM304.158 123.947C304.158 123.947 301.782 123.749 301.55 123.507C301.318 123.265 302.079 122.795 303.12 123.095C304.161 123.394 304.431 123.948 304.158 123.947ZM301.962 124.909C301.897 125.289 302.107 125.639 302.428 125.693C302.748 125.746 303.061 125.484 303.124 125.105C303.189 124.725 302.979 124.373 302.658 124.318C302.568 124.303 302.48 124.313 302.395 124.345C302.504 124.399 302.567 124.535 302.543 124.68C302.515 124.851 302.371 124.971 302.227 124.947C302.12 124.929 302.039 124.837 302.017 124.722C301.992 124.783 301.973 124.843 301.962 124.909ZM305.107 127.455C305.151 127.462 305.199 127.447 305.23 127.41C305.276 127.355 305.269 127.272 305.214 127.226C304.954 127.008 304.923 126.898 304.927 126.852C304.936 126.758 305.12 126.651 305.317 126.539C305.437 126.472 305.57 126.395 305.701 126.302C306.319 125.86 306.418 124.41 306.423 124.349C306.424 124.332 306.422 124.315 306.416 124.299C306.41 124.282 306.402 124.267 306.39 124.254C306.379 124.241 306.365 124.231 306.35 124.223C306.334 124.216 306.317 124.211 306.3 124.21C306.266 124.208 306.232 124.22 306.206 124.243C306.18 124.266 306.164 124.298 306.161 124.332C306.136 124.718 305.978 125.783 305.549 126.089C305.43 126.175 305.306 126.246 305.188 126.313C304.92 126.466 304.688 126.599 304.667 126.829C304.652 127.008 304.768 127.192 305.047 127.427C305.064 127.441 305.085 127.451 305.107 127.455ZM302.414 129.43C302.369 129.434 302.324 129.451 302.284 129.481C302.176 129.565 302.158 129.72 302.241 129.828C302.263 129.856 302.798 130.53 303.768 130.616C304.597 130.691 305.469 130.321 306.362 129.517C306.386 129.496 306.406 129.469 306.42 129.44C306.434 129.411 306.442 129.379 306.444 129.347C306.445 129.314 306.441 129.282 306.43 129.251C306.419 129.221 306.402 129.193 306.38 129.169C306.359 129.144 306.333 129.125 306.303 129.111C306.274 129.097 306.242 129.089 306.21 129.087C306.177 129.085 306.145 129.09 306.114 129.101C306.084 129.112 306.056 129.129 306.032 129.15C305.244 129.858 304.497 130.186 303.812 130.124C303.052 130.056 302.634 129.53 302.63 129.524C302.578 129.456 302.495 129.423 302.414 129.43Z" fill="#21267F"/>
<path opacity="0.5" d="M307.684 128.811C307.684 129.388 308.365 129.855 309.204 129.855C310.043 129.855 310.723 129.388 310.723 128.811C310.723 128.235 310.042 127.768 309.204 127.768C308.365 127.768 307.684 128.235 307.684 128.811ZM299.808 126.967C299.808 127.429 300.353 127.803 301.024 127.803C301.695 127.803 302.239 127.429 302.239 126.967C302.239 126.506 301.695 126.132 301.024 126.132C300.353 126.133 299.808 126.506 299.808 126.967Z" fill="#E5C9C3"/>
<path d="M187.376 51.9496V80.2152H188.402V51.9412L187.376 51.9496ZM194.241 96.3088C194.241 99.8157 191.397 102.66 187.89 102.66C184.38 102.66 181.539 99.8171 181.539 96.3088C181.539 92.8006 184.38 89.9577 187.89 89.9577C191.397 89.9591 194.241 92.802 194.241 96.3088Z" fill="#EFF0F9"/>
<path d="M194.363 83.5883L194.366 83.5855C194.387 83.5546 194.505 83.3534 194.463 83.3098C193.268 82.1156 192.726 79.4555 192.726 79.4555C191.989 78.7649 188.53 78.7438 187.894 78.7438C187.26 78.7438 183.802 78.7663 183.065 79.4555C183.065 79.4555 182.523 82.1156 181.328 83.3098C181.274 83.3633 181.332 83.473 181.421 83.5883C174.957 85.7574 170.381 91.0718 170.381 97.2865H205.4C205.399 91.0732 200.827 85.7574 194.363 83.5883Z" fill="#EFD9D3"/>
<path d="M188.936 79.2235C189.946 79.6947 191.523 80.4852 190.983 81.868C190.567 82.9356 189.176 83.4983 188.177 83.8922C191.672 84.445 195.244 85.2102 197.76 87.7788C198.897 88.9407 199.643 90.7792 199.146 92.4011C198.713 93.8148 197.398 94.2481 196.039 94.2551C194.255 94.2635 192.512 93.7346 190.729 93.7543C188.523 93.7768 187.154 95.282 185.209 96.0444C183.124 96.8602 180.885 96.7632 178.697 97.0642C178.197 97.1331 177.694 97.2105 177.191 97.285H205.396C205.396 91.0718 200.824 85.756 194.361 83.5883L194.363 83.5855C194.384 83.5546 194.503 83.3534 194.46 83.3098C193.265 82.1156 192.723 79.4555 192.723 79.4555C191.986 78.7649 188.527 78.7438 187.891 78.7438C187.862 78.7438 187.798 78.7452 187.758 78.7452C188.16 78.8929 188.558 79.0476 188.936 79.2235Z" fill="#E5C9C3"/>
<path d="M291.156 184.76C291.156 184.76 284.742 184.857 280.823 186.635C276.904 188.413 270.225 186.442 270.225 186.442L269.628 188.842C269.628 188.842 283.933 192.961 291.156 184.76Z" fill="#797DFF"/>
<path d="M297.402 189.676C297.402 189.676 298.305 183.733 297.238 182.746C296.172 181.758 294.429 182.702 294.429 182.702L290.89 185.081C290.89 185.081 275.172 190.09 269.628 188.842C269.628 188.842 277.88 195.136 280.859 203.349C283.839 211.563 284.663 215.279 284.663 215.279C284.663 215.279 288.315 213.546 294.232 212.709C300.152 211.871 297.402 189.676 297.402 189.676Z" fill="#606AE8"/>
<path d="M290.89 185.082C290.89 185.082 298.604 179.479 296.94 185.003C295.275 190.527 277.745 193.552 277.745 193.552C277.745 193.552 295.666 211.957 293.253 219.538C293.253 219.538 297.319 219.939 302.893 222.698C308.468 225.456 311.245 219.19 310.275 213.569C310.275 213.569 299.053 183.673 297.392 182.03C295.729 180.388 290.89 185.082 290.89 185.082Z" fill="#797DFF"/>
<path d="M296.386 222.538C296.386 222.538 299.88 221.456 305.604 220.298C307.585 219.903 310.401 219.107 310.066 214.479C309.979 213.303 309.266 210.782 308.213 207.638C307.126 204.384 305.674 200.451 304.176 196.659C301.436 189.74 298.537 183.249 297.402 182.047C297.639 182.393 301.572 188.379 294.79 192.495C288.035 196.592 284.629 195.725 284.411 195.67C284.77 196.088 298.137 211.627 296.386 222.538Z" fill="#B8BDF4"/>
<g opacity="0.35">
<path d="M295.548 195.912C295.536 195.897 295.525 195.881 295.514 195.864C298.832 193.647 300.022 190.658 300.039 190.616C300.057 190.569 300.093 190.531 300.14 190.51C300.186 190.489 300.238 190.487 300.285 190.505C300.384 190.543 300.433 190.653 300.396 190.751C300.38 190.795 299.153 193.885 295.738 196.174C295.673 196.087 295.611 195.998 295.548 195.912ZM290.437 197.919C291.958 197.63 293.249 197.137 294.36 196.551C294.397 196.601 294.434 196.653 294.47 196.704C294.508 196.758 294.546 196.81 294.584 196.863C293.432 197.478 292.09 197.993 290.508 198.295H290.505C290.402 198.313 290.305 198.246 290.285 198.143C290.266 198.039 290.335 197.939 290.437 197.919ZM299.188 196.291C300.584 194.725 301.104 193.328 301.115 193.3C301.15 193.201 301.259 193.149 301.359 193.185C301.457 193.22 301.509 193.328 301.475 193.428C301.464 193.457 300.92 194.934 299.447 196.575C299.356 196.484 299.27 196.39 299.188 196.291ZM291.421 200.404C291.484 200.382 291.522 200.387 291.571 200.378C294.743 199.831 296.939 198.462 298.422 197.074C298.505 197.17 298.59 197.261 298.682 197.351C297.153 198.785 294.894 200.193 291.636 200.755L291.484 200.781C291.38 200.797 291.281 200.727 291.266 200.623C291.249 200.519 291.318 200.42 291.421 200.404ZM292.407 202.885C293.999 202.67 295.338 202.248 296.479 201.723C296.523 201.844 296.568 201.964 296.618 202.082C295.596 202.549 294.414 202.934 293.045 203.171C292.854 203.203 292.657 203.234 292.459 203.261C292.355 203.275 292.259 203.201 292.243 203.097C292.229 202.996 292.304 202.895 292.407 202.885ZM297.451 201.226C301.084 199.147 302.175 196.026 302.189 195.984C302.222 195.884 302.331 195.829 302.429 195.863C302.529 195.895 302.584 196.004 302.55 196.103C302.536 196.148 301.404 199.433 297.587 201.589C297.54 201.468 297.493 201.347 297.451 201.226ZM294.453 205.603C301.868 204.323 303.611 198.835 303.629 198.777C303.659 198.678 303.602 198.571 303.502 198.54C303.403 198.509 303.296 198.565 303.265 198.666C303.246 198.724 301.416 204.47 293.391 205.369C293.284 205.376 293.211 205.476 293.224 205.58C293.235 205.684 293.329 205.76 293.435 205.748C293.785 205.708 294.124 205.659 294.453 205.603ZM294.376 207.852C296.167 207.693 297.632 207.293 298.856 206.774C298.919 206.886 298.977 207.001 299.04 207.112C298.123 207.503 297.078 207.832 295.86 208.043C295.4 208.122 294.916 208.187 294.41 208.23C294.306 208.24 294.213 208.163 294.203 208.057C294.193 207.953 294.282 207.862 294.376 207.852ZM299.835 206.309C303.432 204.375 304.328 201.392 304.339 201.35C304.368 201.248 304.474 201.19 304.574 201.218C304.676 201.246 304.735 201.352 304.706 201.452C304.694 201.495 303.765 204.628 300.018 206.644C299.955 206.534 299.899 206.42 299.835 206.309ZM303.04 207.496C304.926 205.835 305.407 204.067 305.415 204.036C305.441 203.933 305.545 203.871 305.646 203.898C305.749 203.923 305.809 204.027 305.784 204.128C305.776 204.162 305.262 206.049 303.265 207.801C303.194 207.696 303.118 207.594 303.04 207.496ZM295.359 210.335C298.493 210.124 300.675 209.219 302.189 208.161C302.246 208.233 302.304 208.305 302.357 208.379C302.378 208.409 302.4 208.44 302.421 208.471C301.18 209.342 299.507 210.107 297.262 210.495C296.677 210.596 296.051 210.671 295.386 210.716C295.28 210.723 295.19 210.644 295.183 210.539C295.175 210.433 295.257 210.337 295.359 210.335ZM304.933 209.371C306.168 208.002 306.486 206.745 306.492 206.718C306.514 206.615 306.617 206.552 306.719 206.575C306.822 206.597 306.887 206.7 306.863 206.803C306.856 206.832 306.504 208.244 305.11 209.737C305.048 209.616 304.988 209.495 304.933 209.371ZM304.111 210.166C304.171 210.28 304.23 210.394 304.292 210.506C303.428 211.226 302.293 211.914 300.792 212.417C300.789 212.408 300.785 212.4 300.78 212.391C300.764 212.343 300.744 212.294 300.731 212.245C300.765 212.38 300.728 212.236 300.723 212.215C300.707 212.162 300.693 212.107 300.678 212.054C302.163 211.556 303.276 210.875 304.111 210.166ZM296.342 212.819C297.593 212.76 298.676 212.587 299.644 212.348C299.679 212.473 299.714 212.597 299.755 212.72C299.405 212.808 299.045 212.889 298.661 212.955C297.954 213.078 297.189 213.162 296.361 213.2C296.255 213.206 296.167 213.124 296.161 213.019C296.157 212.913 296.244 212.822 296.342 212.819ZM303.815 213.761C306.985 212.024 307.559 209.44 307.566 209.402C307.586 209.299 307.686 209.233 307.79 209.253C307.893 209.274 307.96 209.374 307.94 209.477C307.932 209.517 307.326 212.289 303.958 214.117C303.91 213.998 303.861 213.881 303.815 213.761ZM297.326 215.302C299.642 215.238 301.437 214.818 302.836 214.233C302.882 214.349 302.931 214.465 302.978 214.581C302.144 214.932 301.186 215.228 300.055 215.423C299.235 215.565 298.331 215.655 297.337 215.683C297.231 215.686 297.144 215.603 297.141 215.497C297.139 215.393 297.223 215.304 297.326 215.302ZM302.159 217.353C307.86 216.04 308.635 212.132 308.642 212.086C308.661 211.982 308.759 211.913 308.863 211.931C308.966 211.95 309.036 212.047 309.019 212.151C309.011 212.2 308.215 216.35 302.272 217.724C302.227 217.603 302.196 217.475 302.159 217.353ZM298.31 217.786C299.341 217.776 300.256 217.69 301.094 217.561C301.131 217.684 301.159 217.811 301.201 217.932C300.333 218.069 299.382 218.157 298.313 218.167C298.208 218.168 298.122 218.083 298.122 217.978C298.121 217.872 298.206 217.784 298.31 217.786Z" fill="#EFF0F9"/>
</g>
<path opacity="0.19" d="M306.599 207.423L308.213 207.639C307.126 204.386 305.674 200.453 304.176 196.66L303.865 197.198C303.217 197.964 304.092 200.069 304.092 200.069C304.092 200.069 301.506 203.367 296.35 202.564C296.35 202.564 296.141 209.381 306.599 207.423Z" fill="#916640"/>
<path d="M298.945 206.347C299.08 205.61 302.385 205.168 302.385 205.168C302.385 205.168 297.015 205.034 297.223 204.228C297.431 203.424 302.1 203.427 302.1 203.427C302.1 203.427 296.223 203.093 295.965 202.234C295.708 201.376 302.089 201.905 302.089 201.905C302.089 201.905 296.693 200.529 296.849 199.721C297.005 198.914 302.449 200.323 303.633 200.37C304.401 200.399 304.874 199.852 304.256 199.333C303.64 198.814 303.463 197.225 304.003 196.963C304.543 196.701 305.518 199.178 306.465 199.392C307.412 199.606 308.448 200.118 308.682 200.599C309.579 201.535 311.294 199.606 311.294 199.606C311.352 199.962 313.937 202.636 311.985 203.958L308.852 205.328C308.852 205.328 307.811 205.7 306.281 205.959C304.75 206.219 298.81 207.084 298.945 206.347Z" fill="#EFD9D3"/>
<path d="M322.817 143.943C322.817 143.943 346.106 160.384 347.302 178.264C348.244 192.35 310.465 205.501 310.465 205.501L309.534 200.447L328.237 179.741C328.237 179.741 318.066 147.326 322.817 143.943Z" fill="white"/>
<g opacity="0.5">
<path d="M304.109 197.014C304.298 197.03 304.474 197.326 304.543 197.448C304.543 197.448 304.401 197.694 304.28 197.578C304.158 197.461 303.919 196.997 304.109 197.014ZM296.93 199.731C297.016 199.554 297.637 199.603 297.686 199.654C297.686 199.654 297.554 200.142 297.493 200.215C297.433 200.288 296.843 199.908 296.93 199.731ZM296.144 202.225C296.179 202.031 296.79 201.913 296.85 201.948C296.85 201.948 296.854 202.453 296.816 202.54C296.778 202.626 296.11 202.419 296.144 202.225ZM297.449 204.272C297.476 204.076 298.08 203.93 298.142 203.962C298.142 203.962 298.168 204.467 298.134 204.555C298.101 204.643 297.423 204.467 297.449 204.272ZM299.098 206.337C299.105 206.172 299.595 206.005 299.649 206.027C299.649 206.027 299.711 206.444 299.689 206.52C299.666 206.596 299.091 206.5 299.098 206.337Z" fill="#EFF0F9"/>
</g>
<path d="M139.45 85.2651C136.549 87.589 133.46 87.5003 130.949 87.1093C131.28 86.7675 131.612 86.4256 131.945 86.0838C131.671 85.7504 131.394 85.4171 131.117 85.0851C131.121 85.0724 135.403 85.7293 137.016 84.6307C137.188 84.8811 137.36 85.1315 137.53 85.3833C137.53 85.3833 138.394 85.5915 139.45 85.2651Z" fill="#797DFF"/>
<path d="M103.712 101.671C103.707 101.67 102.35 103.759 102.509 104.331C102.298 104.235 102.087 104.141 101.875 104.047C101.701 104.071 101.525 104.096 101.35 104.121C101.35 104.121 101.663 102.442 102.379 101.279L102.902 101.641L103.712 101.671Z" fill="#B8BDF4"/>
<path d="M124.826 95.0485C124.825 95.0485 126.478 95.1568 128.005 96.0528C127.834 96.2202 127.662 96.3876 127.492 96.5564C127.55 96.7857 127.609 97.0136 127.666 97.2429C127.669 97.2372 125.092 96.5452 124.245 96.6155C124.172 96.3271 124.099 96.0388 124.024 95.7504C124.29 95.5169 124.558 95.282 124.826 95.0485Z" fill="#797DFF"/>
<path d="M143.206 97.9322C143.207 97.9322 142.125 97.0319 140.705 96.5635C140.723 96.752 140.743 96.9391 140.761 97.1262C140.612 97.1599 140.463 97.1937 140.312 97.2274C140.312 97.226 141.491 97.5271 142.252 98.1319C142.291 98.0349 142.332 97.9378 142.373 97.8407C142.65 97.8703 142.927 97.9012 143.206 97.9322ZM107.135 81.2829C107.149 81.2632 112.142 83.0693 112.833 83.2494C112.45 83.3 112.068 83.3521 111.685 83.4041C111.834 83.6545 111.982 83.9049 112.13 84.1553C112.142 84.1328 106.869 82.5798 106.257 82.5095C106.511 82.359 106.766 82.2099 107.021 82.0608L107.135 81.2829Z" fill="#B8BDF4"/>
<path d="M174.435 120.097C171.523 122.405 168.434 122.301 165.925 121.896C166.257 121.556 166.592 121.215 166.926 120.876C166.653 120.541 166.378 120.206 166.102 119.873C166.106 119.861 170.385 120.54 172.004 119.45C172.175 119.702 172.345 119.954 172.514 120.205C172.516 120.204 173.379 120.418 174.435 120.097Z" fill="#797DFF"/>
<path d="M138.613 136.314C138.607 136.313 137.241 138.395 137.396 138.969C137.185 138.873 136.976 138.778 136.763 138.682L136.237 138.754C136.237 138.754 136.558 137.077 137.281 135.916C137.455 136.037 137.628 136.16 137.801 136.282C138.073 136.292 138.343 136.303 138.613 136.314Z" fill="#B8BDF4"/>
<path d="M159.761 129.803C159.759 129.803 161.411 129.92 162.936 130.824C162.763 130.99 162.591 131.158 162.419 131.325C162.477 131.554 162.533 131.784 162.59 132.011C162.592 132.006 160.02 131.301 159.171 131.367C159.1 131.079 159.028 130.79 158.955 130.502C159.223 130.267 159.492 130.035 159.761 129.803Z" fill="#797DFF"/>
<path d="M178.125 132.782C178.125 132.782 177.049 131.876 175.631 131.401C175.649 131.589 175.666 131.777 175.684 131.965C175.535 131.997 175.385 132.031 175.235 132.063C175.235 132.063 176.411 132.369 177.17 132.978L177.292 132.687C177.569 132.718 177.846 132.75 178.125 132.782ZM142.142 115.944C142.156 115.925 147.14 117.758 147.829 117.941C147.447 117.99 147.064 118.039 146.682 118.09C146.829 118.34 146.976 118.592 147.122 118.842C147.135 118.82 141.869 117.239 141.257 117.165C141.512 117.016 141.768 116.869 142.024 116.72C142.063 116.462 142.103 116.203 142.142 115.944Z" fill="#B8BDF4"/>
<path d="M268.016 81.2576C267.029 85.7547 264.074 87.3091 261.453 88.1531C261.513 87.551 261.574 86.9475 261.636 86.3455C261.135 86.0762 260.634 85.8094 260.131 85.5451C260.125 85.531 264.6 84.054 265.286 81.7991C265.632 82.0172 265.975 82.2366 266.319 82.4561C266.32 82.4561 267.276 82.245 268.016 81.2576Z" fill="#797DFF"/>
<path d="M246.03 119.907C246.027 119.907 246.124 123.152 246.632 123.802C246.376 123.778 246.12 123.754 245.864 123.732C245.718 123.842 245.572 123.953 245.427 124.062C245.428 124.062 244.638 121.81 244.536 120.027C244.778 120.098 245.019 120.17 245.259 120.243C245.515 120.131 245.773 120.018 246.03 119.907ZM261.298 101.294C261.295 101.295 262.913 100.581 264.939 100.916L264.795 101.817C265.002 102.076 265.207 102.334 265.413 102.592C265.413 102.587 262.55 103.044 261.806 103.564C261.546 103.238 261.284 102.913 261.022 102.588C261.114 102.156 261.205 101.725 261.298 101.294ZM280.364 95.1315C280.366 95.1315 278.761 94.5899 277.122 94.7756C277.265 95.0035 277.407 95.2299 277.549 95.4578C277.433 95.583 277.316 95.7068 277.199 95.832C277.198 95.832 278.497 95.5661 279.606 95.9136C279.579 95.7687 279.554 95.6224 279.527 95.4775C279.806 95.3622 280.084 95.2468 280.364 95.1315ZM234.763 93.1171C234.767 93.089 240.862 92.8259 241.639 92.6993C241.316 92.9525 240.994 93.2057 240.675 93.4589C241.004 93.691 241.331 93.9231 241.657 94.1566C241.658 94.1271 235.511 94.8248 234.871 95.033C234.998 94.7264 235.124 94.4211 235.252 94.1144C235.089 93.7825 234.926 93.4505 234.763 93.1171Z" fill="#B8BDF4"/>
<path d="M224.392 142.4C221.214 141.181 220.658 139.512 220.653 138.099C221.097 138.233 221.542 138.37 221.985 138.507C222.31 138.319 222.635 138.13 222.961 137.942C222.96 137.943 223.017 140.318 224.579 141.032C224.337 141.155 224.096 141.277 223.854 141.399C223.854 141.401 223.805 141.886 224.392 142.4Z" fill="#797DFF"/>
<path d="M200.232 124.591C200.235 124.587 197.614 124.084 196.923 124.279C197.028 124.133 197.13 123.986 197.234 123.84C197.195 123.736 197.157 123.631 197.118 123.526C197.118 123.525 199.187 123.452 200.638 123.721C200.499 123.844 200.36 123.97 200.221 124.093C200.226 124.259 200.229 124.425 200.232 124.591ZM210.571 135.905C210.572 135.905 210.734 136.853 210.029 137.876C209.807 137.81 209.583 137.745 209.36 137.68C209.114 137.756 208.867 137.831 208.621 137.908C208.62 137.908 208.903 136.32 208.68 135.85C208.995 135.757 209.312 135.665 209.628 135.573C209.944 135.683 210.257 135.794 210.571 135.905ZM211.688 146.652C211.688 146.652 212.328 145.869 212.45 145.001C212.255 145.05 212.058 145.101 211.862 145.151C211.786 145.077 211.709 145.002 211.632 144.929C211.632 144.929 211.629 145.634 211.203 146.181H211.546C211.594 146.338 211.641 146.495 211.688 146.652ZM225.076 124.655C225.069 124.652 223.069 127.457 222.933 127.856C222.85 127.649 222.767 127.444 222.684 127.237C222.393 127.334 222.103 127.43 221.812 127.528C221.805 127.527 223.464 124.549 223.578 124.22C223.764 124.354 223.948 124.487 224.134 124.621C224.448 124.631 224.761 124.642 225.076 124.655Z" fill="#B8BDF4"/>
</svg>
